<svg xmlns="http://www.w3.org/2000/svg" viewBox="0 0 512 512" role="img" aria-label="CheekyCheeseIT">
  <title>CheekyCheeseIT — tile</title>
  <defs>
    <radialGradient id="tileGlow" cx="50%" cy="44%" r="46%">
      <stop offset="0" stop-color="#FFC300" stop-opacity="0.20"/><stop offset="1" stop-color="#FFC300" stop-opacity="0"/>
    </radialGradient>
  </defs>
  <!-- app tile -->
  <rect x="16" y="16" width="480" height="480" rx="104" fill="#1F1F1F"/>
  <rect x="16" y="16" width="480" height="480" rx="104" fill="url(#tileGlow)"/>
  <rect x="17" y="17" width="478" height="478" rx="103" fill="none" stroke="#FFFFFF" stroke-opacity="0.09" stroke-width="2"/>

  <!-- wedge mark, scaled to fit with padding -->
  <g transform="translate(256 252) scale(0.78) translate(-264 -264)">
    <path d="M 112 112 L 422 215 A 18 18 0 0 1 432 233 L 432 402 A 18 18 0 0 1 414 416 L 110 416 A 18 18 0 0 1 96 398 L 96 124 A 18 18 0 0 1 112 112 Z" fill="#FFC300"/>
    <g fill="#15120A">
      <circle cx="192" cy="216" r="22"/>
      <circle cx="240" cy="272" r="30"/>
      <circle cx="192" cy="328" r="22"/>
      <rect x="296" y="312" width="80" height="28" rx="10"/>
      <circle cx="320" cy="236" r="14"/>
      <circle cx="388" cy="376" r="12"/>
    </g>
  </g>
</svg>
